<svg xmlns="http://www.w3.org/2000/svg" version="1.1" xmlns:xlink="http://www.w3.org/1999/xlink" xmlns:svgjs="http://svgjs.dev/svgjs" width="1000" height="1776" viewBox="0 0 1000 1776"><g transform="matrix(1,0,0,1,-1.603274271042551,0.7190283400809676)"><svg viewBox="0 0 139 247" data-background-color="#ffffff" preserveAspectRatio="xMidYMid meet" height="1776" width="1000" xmlns="http://www.w3.org/2000/svg" xmlns:xlink="http://www.w3.org/1999/xlink"><g id="tight-bounds" transform="matrix(1,0,0,1,0.22285512367491833,-0.09999999999999432)"><svg viewBox="0 0 138.55428975265016 247.2" height="247.2" width="138.55428975265016"><g><svg></svg></g><g><svg viewBox="0 0 138.55428975265016 247.2" height="247.2" width="138.55428975265016"><g transform="matrix(1,0,0,1,0,47.215199999999996)"><svg viewBox="0 0 138.55428975265016 152.7696" height="152.7696" width="138.55428975265016"><g><svg viewBox="0 0 138.55428975265016 152.7696" height="152.7696" width="138.55428975265016"><g><svg viewBox="0 0 138.55428975265016 152.7696" height="152.7696" width="138.55428975265016"><g><svg viewBox="0 0 138.55428975265016 152.7696" height="152.7696" width="138.55428975265016"><g id="textblocktransform"><svg viewBox="0 0 138.55428975265016 152.7696" height="152.7696" width="138.55428975265016" id="textblock"><g><svg viewBox="0 0 138.55428975265016 152.7696" height="152.7696" width="138.55428975265016"><g transform="matrix(1,0,0,1,0,0)"><svg width="138.55428975265016" viewBox="2.25 -36.5 38.5 42.45000076293945" height="152.7696" data-palette-color="#001f3f"><path d="M15.1-4.5L14.6-4.5 14.6-31.5 15.1-31.5 15.1-18.25 34.3-18.25 34.3-31.5 34.8-31.5 34.8-4.5 34.3-4.5 34.3-17.75 15.1-17.75 15.1-4.5ZM11 0L18.75 0Q19.7 0 20.13-0.43 20.55-0.85 20.55-1.8L20.55-1.8 20.55-12.9 28.9-12.9 28.9-1.8Q28.9-0.85 29.33-0.43 29.75 0 30.7 0L30.7 0 38.45 0Q39.4 0 39.83-0.43 40.25-0.85 40.25-1.8L40.25-1.8 40.25-34.2Q40.25-35.15 39.83-35.58 39.4-36 38.45-36L38.45-36 30.7-36Q29.75-36 29.33-35.58 28.9-35.15 28.9-34.2L28.9-34.2 28.9-23.35 20.55-23.35 20.55-34.2Q20.55-35.15 20.13-35.58 19.7-36 18.75-36L18.75-36 11-36Q10.05-36 9.63-35.58 9.2-35.15 9.2-34.2L9.2-34.2 9.2-1.8Q9.2-0.85 9.63-0.43 10.05 0 11 0L11 0ZM20.35 0.05L20.35 0.05 13.85 5.45Q13.65 5.65 13.23 5.8 12.8 5.95 12.3 5.95L12.3 5.95 4.55 5.95Q3.35 5.95 2.8 5.4 2.25 4.85 2.25 3.65L2.25 3.65 2.25-28.75Q2.25-29.4 2.43-29.85 2.6-30.3 2.95-30.6L2.95-30.6 9.4-36.05Q9.65-36.25 10.08-36.38 10.5-36.5 11-36.5L11-36.5 18.75-36.5Q19.95-36.5 20.5-35.95 21.05-35.4 21.05-34.2L21.05-34.2 21.05-23.85 21.95-23.85 21.95-28.75Q21.95-29.4 22.13-29.85 22.3-30.3 22.65-30.6L22.65-30.6 29.1-36.05Q29.35-36.25 29.78-36.38 30.2-36.5 30.7-36.5L30.7-36.5 38.45-36.5Q39.65-36.5 40.2-35.95 40.75-35.4 40.75-34.2L40.75-34.2 40.75-1.8Q40.75-1.15 40.58-0.7 40.4-0.25 40.05 0.05L40.05 0.05 33.55 5.45Q33.35 5.65 32.93 5.8 32.5 5.95 32 5.95L32 5.95 24.25 5.95Q23.05 5.95 22.5 5.4 21.95 4.85 21.95 3.65L21.95 3.65 21.95-6.95 21.05-6.95 21.05-1.8Q21.05-1.15 20.88-0.7 20.7-0.25 20.35 0.05Z" opacity="1" transform="matrix(1,0,0,1,0,0)" fill="#001f3f" class="wordmark-text-0" data-fill-palette-color="primary" id="text-0"></path></svg></g></svg></g></svg></g></svg></g><g></g></svg></g></svg></g></svg></g><path d="M0 41.215L0 1 138.554 1 138.554 41.215 124.777 41.215 124.777 14.777 13.777 14.777 13.777 41.215 0 41.215M0 205.985L0 246.2 138.554 246.2 138.554 205.985 124.777 205.985 124.777 232.423 13.777 232.423 13.777 205.985 0 205.985" fill="#001f3f" stroke="transparent" data-fill-palette-color="primary"></path></svg></g><defs></defs></svg><rect width="138.55428975265016" height="247.2" fill="none" stroke="none" visibility="hidden"></rect></g></svg></g></svg>