<svg xmlns="http://www.w3.org/2000/svg" version="1.1" xmlns:xlink="http://www.w3.org/1999/xlink" xmlns:svgjs="http://svgjs.dev/svgjs" width="1000" height="857" viewBox="0 0 1000 857"><g transform="matrix(1,0,0,1,0.2686589887885589,0.3476042725371826)"><svg viewBox="0 0 288 247" data-background-color="#001f3f" preserveAspectRatio="xMidYMid meet" height="857" width="1000" xmlns="http://www.w3.org/2000/svg" xmlns:xlink="http://www.w3.org/1999/xlink"><g id="tight-bounds" transform="matrix(1,0,0,1,-0.0773737887710979,-0.09997365579206985)"><svg viewBox="0 0 288.1547475775422 247.2" height="247.2" width="288.1547475775422"><g><svg viewBox="0 0 288.1547475775422 247.2" height="247.2" width="288.1547475775422"><g><svg viewBox="0 0 288.1547475775422 247.2" height="247.2" width="288.1547475775422"><g id="textblocktransform"><svg viewBox="0 0 288.1547475775422 247.2" height="247.2" width="288.1547475775422" id="textblock"><g><svg viewBox="0 0 288.1547475775422 247.2" height="247.2" width="288.1547475775422"><path d="M287.48 53.02C286.125 27.36 282.265 20.227 282.265 20.227 270.411-6.202 255.618-0.506 242.329 3.292 218.866 3.446 195.498 9.091 172.089 12.119 122.955 12.581 73.4 4.986 24.51 23.717 19.918 29.464-4.764 24.846 0.817 56.304 2.28 69.39 7.617 83.913 7.455 95.922 8.186 98.026 9.202 93.202 9.636 96.23 11.153 104.39 13.632 100.541 15.664 105.365 12.833 118.246 14.865 128.971 16.802 140.21 13.388 143.135 9.013 141.749 7.048 151.449 6.845 158.479 5.748 157.145 4.542 156.837 3.662 156.632 1.887 157.402 2.185 159.608 3.201 167.152-1.161 171.514 1.575 178.904-0.308 186.91 2.876 193.838 2.442 202.511 2.388 204.255 2.686 205.744 3.16 206.154 5.26 208.361 2.199 212.672 2.524 217.342 24.063 249.262 47.431 227.195 69.499 241.872 75.229 231.608 70.921 245.516 73.211 243.36 74.999 240.846 76.299 251.263 78.318 245.362 78.63 243.668 78.155 239.665 79.266 240.435 79.849 240.846 80.364 240.743 80.445 238.382 80.567 234.841 79.497 237.048 79.212 235.201 82.287 225.861 81.529 248.081 84.414 247.158 84.279 244.438 83.439 240.538 85.159 241.051 86.866 237.151 86.92 233.918 88.437 242.693 88.492 244.592 88.763 245.926 89.196 246.85 93.937 237.305 98.652 250.237 103.623 245.926 106.671 241.205 109.597 248.492 112.686 246.696 113.77 245.259 114.867 242.693 115.91 247.004 128.685 247.928 142.299 244.079 154.41 247.158 186.773 241.41 221.358 249.518 255.483 241.923 263.529 238.998 271.888 234.841 279.731 231.506 279.731 231.506 286.085 222.371 286.085 181.316S287.439 145.393 287.643 112.703C287.846 80.013 288.794 78.679 287.439 53.02Z" opacity="1" fill="#ffffff" data-fill-palette-color="tertiary"></path><g transform="matrix(1,0,0,1,55.76832,26.230666666666668)"><svg width="176.6181075775422" viewBox="2.25 -36.5 38.5 42.45000076293945" height="194.73866666666666" data-palette-color="#001f3f"><path d="M15.1-4.5L14.6-4.5 14.6-31.5 15.1-31.5 15.1-18.25 34.3-18.25 34.3-31.5 34.8-31.5 34.8-4.5 34.3-4.5 34.3-17.75 15.1-17.75 15.1-4.5ZM11 0L18.75 0Q19.7 0 20.13-0.43 20.55-0.85 20.55-1.8L20.55-1.8 20.55-12.9 28.9-12.9 28.9-1.8Q28.9-0.85 29.33-0.43 29.75 0 30.7 0L30.7 0 38.45 0Q39.4 0 39.83-0.43 40.25-0.85 40.25-1.8L40.25-1.8 40.25-34.2Q40.25-35.15 39.83-35.58 39.4-36 38.45-36L38.45-36 30.7-36Q29.75-36 29.33-35.58 28.9-35.15 28.9-34.2L28.9-34.2 28.9-23.35 20.55-23.35 20.55-34.2Q20.55-35.15 20.13-35.58 19.7-36 18.75-36L18.75-36 11-36Q10.05-36 9.63-35.58 9.2-35.15 9.2-34.2L9.2-34.2 9.2-1.8Q9.2-0.85 9.63-0.43 10.05 0 11 0L11 0ZM20.35 0.05L20.35 0.05 13.85 5.45Q13.65 5.65 13.23 5.8 12.8 5.95 12.3 5.95L12.3 5.95 4.55 5.95Q3.35 5.95 2.8 5.4 2.25 4.85 2.25 3.65L2.25 3.65 2.25-28.75Q2.25-29.4 2.43-29.85 2.6-30.3 2.95-30.6L2.95-30.6 9.4-36.05Q9.65-36.25 10.08-36.38 10.5-36.5 11-36.5L11-36.5 18.75-36.5Q19.95-36.5 20.5-35.95 21.05-35.4 21.05-34.2L21.05-34.2 21.05-23.85 21.95-23.85 21.95-28.75Q21.95-29.4 22.13-29.85 22.3-30.3 22.65-30.6L22.65-30.6 29.1-36.05Q29.35-36.25 29.78-36.38 30.2-36.5 30.7-36.5L30.7-36.5 38.45-36.5Q39.65-36.5 40.2-35.95 40.75-35.4 40.75-34.2L40.75-34.2 40.75-1.8Q40.75-1.15 40.58-0.7 40.4-0.25 40.05 0.05L40.05 0.05 33.55 5.45Q33.35 5.65 32.93 5.8 32.5 5.95 32 5.95L32 5.95 24.25 5.95Q23.05 5.95 22.5 5.4 21.95 4.85 21.95 3.65L21.95 3.65 21.95-6.95 21.05-6.95 21.05-1.8Q21.05-1.15 20.88-0.7 20.7-0.25 20.35 0.05Z" opacity="1" transform="matrix(1,0,0,1,0,0)" fill="#001f3f" class="wordmark-text-0" data-fill-palette-color="quaternary" id="text-0"></path></svg></g></svg></g></svg></g></svg></g><g></g></svg></g><defs></defs></svg><rect width="288.1547475775422" height="247.2" fill="none" stroke="none" visibility="hidden"></rect></g></svg></g></svg>